<mxfile host="app.diagrams.net" modified="2024-03-25T00:36:35.825Z" agent="Mozilla/5.0 (Windows NT 10.0; Win64; x64) AppleWebKit/537.36 (KHTML, like Gecko) Chrome/117.0.0.0 Safari/537.36" version="24.1.0" etag="54LucIxvcJqG5qbh0gTO" type="github">
  <diagram name="第 1 页" id="Lb96zFHRA7Kyef2jrqLl">
    <mxGraphModel>
      <root>
        <mxCell id="0" />
        <mxCell id="1" parent="0" />
      </root>
    </mxGraphModel>
  </diagram>
</mxfile>
